<svg width="77" height="77" viewBox="0 0 77 77" fill="none" xmlns="http://www.w3.org/2000/svg">
<rect width="77" height="77" rx="13" fill="url(#paint0_linear_55_92)"/>
<path d="M41.2246 39.4583H42.844C42.846 37.4758 44.4774 35.8666 46.4874 35.8646H48.9083C48.0602 35.623 46.1595 34.8943 45.3134 34.7146C43.1435 36.1421 40.5931 36.9028 37.9858 36.9028C35.3785 36.9028 32.8283 36.1421 30.6582 34.7146C30.2696 34.8184 29.8809 34.9382 29.4923 35.066L21.6465 37.6455C20.1041 38.1526 18.7601 39.1269 17.8087 40.4267C16.8574 41.7284 16.3453 43.2917 16.3433 44.8969V51.9487C16.3433 54.2966 18.2136 57.0279 20.6263 57.0279H38.4228C38.1374 56.5427 37.9856 55.9917 37.9856 55.4306V42.6529C37.9856 41.8064 38.3256 40.9938 38.9329 40.3928C39.5421 39.7938 40.3664 39.4583 41.2246 39.4583Z" fill="white"/>
<path d="M49.6451 23.8055C49.6451 30.1566 44.4249 35.3055 37.986 35.3055C31.5471 35.3055 26.3269 30.1566 26.3269 23.8055C26.3269 17.4545 31.5471 12.3055 37.986 12.3055C44.4249 12.3055 49.6451 17.4545 49.6451 23.8055Z" fill="white"/>
<path d="M50.1305 48.6425C49.4403 48.6206 49.2602 48.0296 49.3209 47.4446H39.605V55.4307C39.607 56.3112 40.3316 57.0259 41.2243 57.0279H59.0368C59.9295 57.0259 60.6541 56.3112 60.6561 55.4307V47.4446H50.9402C51.0009 48.0256 50.8188 48.6225 50.1305 48.6425Z" fill="white"/>
<path d="M59.0372 41.0555H55.7986V39.4583C55.7986 38.3562 54.8918 37.4618 53.7745 37.4618H46.4878C45.3705 37.4618 44.4637 38.3562 44.4637 39.4583V41.0555H41.225C40.3324 41.0575 39.6077 41.7722 39.6057 42.6527V45.8472H49.3216V45.4479C49.3297 45.0126 49.69 44.6653 50.1313 44.6653C50.5725 44.6653 50.9329 45.0127 50.9409 45.4479V45.8472H60.6568V42.6527C60.6548 41.7722 59.9299 41.0575 59.0372 41.0555ZM54.1793 41.0555H46.0827V39.4583C46.0867 39.2387 46.2648 39.063 46.4875 39.059H53.7742C53.9968 39.063 54.175 39.2387 54.179 39.4583L54.1793 41.0555Z" fill="white"/>
<defs>
<linearGradient id="paint0_linear_55_92" x1="-2.64753e-08" y1="1.48523" x2="80.8768" y2="5.99534" gradientUnits="userSpaceOnUse">
<stop stop-color="#FFB834"/>
<stop offset="0.5" stop-color="#FFAE3B"/>
<stop offset="1" stop-color="#FFA640"/>
</linearGradient>
</defs>
</svg>
