<svg width="77" height="77" viewBox="0 0 77 77" fill="none" xmlns="http://www.w3.org/2000/svg">
<rect width="77" height="77" rx="13" fill="url(#paint0_linear_55_70)"/>
<path fill-rule="evenodd" clip-rule="evenodd" d="M38.5 64C52.5833 64 64 52.5833 64 38.5C64 24.4167 52.5833 13 38.5 13C24.4167 13 13 24.4167 13 38.5C13 52.5833 24.4167 64 38.5 64ZM37.5382 52.9822V56H39.729V52.9815C41.4474 52.8851 42.9436 52.5587 44.2176 52.0023C45.7672 51.3206 46.9517 50.3776 47.771 49.1734C48.5903 47.9604 49 46.557 49 44.9633C49 43.7857 48.7774 42.7586 48.3321 41.882C47.8868 41.0055 47.2812 40.2573 46.5153 39.6375C45.7583 39.0177 44.8989 38.5042 43.937 38.0969C42.9841 37.6896 41.9911 37.3664 40.958 37.1273L39.729 36.8219V29.2564C40.7371 29.3758 41.5876 29.6797 42.2805 30.168C43.2067 30.8143 43.7322 31.7174 43.8569 32.8773H48.626C48.5992 31.3456 48.1673 29.9909 47.3302 28.8133C46.493 27.6268 45.3397 26.7016 43.8702 26.0375C42.656 25.4781 41.2756 25.1512 39.729 25.0568V22H37.5382V25.0765C36.1112 25.1916 34.8065 25.5119 33.624 26.0375C32.1101 26.7016 30.9122 27.6357 30.0305 28.8398C29.1578 30.044 28.7214 31.4474 28.7214 33.05C28.7214 34.9979 29.3715 36.5607 30.6718 37.7383C31.9809 38.907 33.7621 39.7792 36.0153 40.3547L37.5382 40.7446V48.7454C36.9087 48.6751 36.3209 48.5389 35.7748 48.3367C34.9466 48.0268 34.2742 47.5576 33.7576 46.9289C33.2411 46.3003 32.9472 45.5122 32.876 44.5648H28C28.0712 46.3711 28.5433 47.9029 29.416 49.1602C30.2977 50.4174 31.5178 51.3737 33.0763 52.0289C34.3719 52.5705 35.8592 52.8882 37.5382 52.9822ZM39.729 48.7352C40.3427 48.6607 40.9037 48.5234 41.4122 48.3234C42.2316 47.9958 42.8728 47.5443 43.3359 46.9688C43.799 46.3844 44.035 45.7026 44.0439 44.9234C44.035 44.2151 43.8257 43.6307 43.416 43.1703C43.0064 42.701 42.4319 42.3115 41.6927 42.0016C41.1159 41.7498 40.4614 41.5201 39.729 41.3126V48.7352ZM37.5382 36.2625V29.2719C36.9861 29.3461 36.4874 29.4766 36.042 29.6633C35.3028 29.9732 34.7373 30.3937 34.3454 30.925C33.9536 31.4563 33.7532 32.0628 33.7443 32.7445C33.7443 33.3112 33.8734 33.8026 34.1317 34.2188C34.3989 34.6349 34.7595 34.9891 35.2137 35.2812C35.6679 35.5646 36.1711 35.8036 36.7233 35.9984C36.9938 36.0939 37.2655 36.1819 37.5382 36.2625Z" fill="white"/>
<defs>
<linearGradient id="paint0_linear_55_70" x1="-2.64753e-08" y1="1.48523" x2="80.8768" y2="5.99534" gradientUnits="userSpaceOnUse">
<stop stop-color="#FFB834"/>
<stop offset="0.5" stop-color="#FFAE3B"/>
<stop offset="1" stop-color="#FFA640"/>
</linearGradient>
</defs>
</svg>
