<svg width="78" height="77" viewBox="0 0 78 77" fill="none" xmlns="http://www.w3.org/2000/svg">
<rect width="77" height="77" rx="13" fill="url(#paint0_linear_55_85)"/>
<g clip-path="url(#clip0_55_85)">
<path fill-rule="evenodd" clip-rule="evenodd" d="M22.8851 54.6035C22.8663 53.2437 23.6174 51.9268 24.8517 50.4593L17.4984 45.7381C17.0362 45.5315 17.0418 45.2516 17.303 44.9253L18.8236 43.6345C19.1008 43.467 19.3966 43.3976 19.7186 43.4905L28.7256 45.1553L36.0777 37.1723L18.413 25.0674C17.9667 24.8004 17.9248 24.5062 18.3748 24.1729L20.8626 22.2029L43.7433 28.9751L50.3544 21.8908C52.5799 19.9739 54.759 19.1357 56.4495 19.5782C57.3812 19.8228 57.713 20.1048 58.014 20.98C58.5986 22.6965 57.7722 24.9769 55.7692 27.3056L48.6849 33.9167L55.4572 56.7974L53.4872 59.2852C53.1538 59.7318 52.8596 59.6899 52.5926 59.247L40.4844 41.5857L32.5013 48.9344L34.1662 57.9414C34.2591 58.2601 34.193 58.5558 34.0222 58.8364L32.7314 60.357C32.4084 60.6182 32.1251 60.6237 31.9186 60.1616L27.1974 52.8083C25.7232 54.0459 24.4063 54.7969 23.0397 54.7746C22.9148 54.7692 22.8871 54.7249 22.8851 54.6035Z" fill="white"/>
</g>
<defs>
<linearGradient id="paint0_linear_55_85" x1="-2.64753e-08" y1="1.48523" x2="80.8768" y2="5.99534" gradientUnits="userSpaceOnUse">
<stop stop-color="#FFB834"/>
<stop offset="0.5" stop-color="#FFAE3B"/>
<stop offset="1" stop-color="#FFA640"/>
</linearGradient>
<clipPath id="clip0_55_85">
<rect width="54" height="53" fill="white" transform="translate(2 38.1838) rotate(-45)"/>
</clipPath>
</defs>
</svg>
