<svg width="77" height="77" viewBox="0 0 77 77" fill="none" xmlns="http://www.w3.org/2000/svg">
<rect width="77" height="77" rx="13" fill="url(#paint0_linear_55_80)"/>
<path d="M39 16C32.9008 16 27.0491 18.4238 22.7361 22.7361C18.4236 27.0486 16 32.9003 16 39C16 45.0997 18.4238 50.9509 22.7361 55.2639C27.0486 59.5764 32.9003 62 39 62C45.0997 62 50.9509 59.5762 55.2639 55.2639C59.5764 50.9514 62 45.0997 62 39C61.9934 32.9025 59.5695 27.0553 55.2571 22.7429C50.9446 18.4304 45.0975 16.0068 39 16ZM39 58.4615C36.972 58.4615 34.2828 54.5692 33.0797 47.8462H44.8738C43.7172 54.5692 41.028 58.4615 39 58.4615ZM32.56 44.3077C32.3654 42.5451 32.2703 40.7736 32.2769 39C32.2703 37.2264 32.3654 35.4549 32.56 33.6923H45.44C45.6346 35.4549 45.7297 37.2264 45.7231 39C45.7297 40.7736 45.6346 42.5451 45.44 44.3077H32.56ZM19.5385 39C19.5473 37.2042 19.8016 35.4195 20.2926 33.6923H29.0215C28.6434 37.2197 28.6434 40.7806 29.0215 44.3077H20.2926C19.8016 42.5805 19.5473 40.7958 19.5385 39ZM39 19.5385C41.028 19.5385 43.7172 23.4308 44.9203 30.1538H33.1262C34.2828 23.4308 36.972 19.5385 39 19.5385ZM48.9785 33.6923H57.7074C58.7136 37.16 58.7136 40.84 57.7074 44.3077H48.9785C49.1664 42.5451 49.2615 40.7736 49.2615 39C49.2615 37.2264 49.1664 35.4549 48.9785 33.6923ZM56.3141 30.1538H48.4366C47.9302 26.8498 46.8598 23.6584 45.2742 20.7172C50.029 22.3294 53.9833 25.7086 56.3141 30.1538ZM32.7236 20.7172H32.7258C31.1401 23.6585 30.0698 26.8498 29.5634 30.1538H21.6859C23.9881 25.6821 27.9249 22.2673 32.6772 20.6243L32.7236 20.7172ZM21.6859 47.8462H29.5633C30.0698 51.1502 31.1402 54.3416 32.7258 57.2828C27.971 55.6706 24.0167 52.2914 21.6859 47.8462ZM45.2764 57.2828H45.2742C46.8599 54.3415 47.9302 51.1502 48.4366 47.8462H56.2677C53.9765 52.309 50.0575 55.7214 45.3228 57.3757L45.2764 57.2828Z" fill="white"/>
<defs>
<linearGradient id="paint0_linear_55_80" x1="-2.64753e-08" y1="1.48523" x2="80.8768" y2="5.99534" gradientUnits="userSpaceOnUse">
<stop stop-color="#FFB834"/>
<stop offset="0.5" stop-color="#FFAE3B"/>
<stop offset="1" stop-color="#FFA640"/>
</linearGradient>
</defs>
</svg>
