<svg width="72" height="72" viewBox="0 0 72 72" fill="none" xmlns="http://www.w3.org/2000/svg">
<rect width="72" height="72" rx="15" fill="url(#paint0_linear_78_491)"/>
<path d="M28.6776 52.9091V23.8182H30.5412V52.9091H28.6776ZM34.0526 33.125C33.9465 32.1326 33.4995 31.3598 32.7116 30.8068C31.9313 30.2538 30.9162 29.9773 29.6662 29.9773C28.7874 29.9773 28.0336 30.1098 27.4048 30.375C26.776 30.6402 26.295 31 25.9616 31.4545C25.6283 31.9091 25.4579 32.428 25.4503 33.0114C25.4503 33.4962 25.5601 33.9167 25.7798 34.2727C26.0071 34.6288 26.3139 34.9318 26.7003 35.1818C27.0866 35.4242 27.5147 35.6288 27.9844 35.7955C28.4541 35.9621 28.9276 36.1023 29.4048 36.2159L31.5866 36.7614C32.4654 36.9659 33.3101 37.2424 34.1207 37.5909C34.9389 37.9394 35.67 38.3788 36.3139 38.9091C36.9654 39.4394 37.4806 40.0795 37.8594 40.8295C38.2382 41.5795 38.4276 42.4583 38.4276 43.4659C38.4276 44.8295 38.0791 46.0303 37.3821 47.0682C36.6851 48.0985 35.6776 48.9053 34.3594 49.4886C33.0488 50.0644 31.4616 50.3523 29.598 50.3523C27.7874 50.3523 26.2154 50.072 24.8821 49.5114C23.5563 48.9508 22.5185 48.1326 21.7685 47.0568C21.026 45.9811 20.6245 44.6705 20.5639 43.125H24.7116C24.7723 43.9356 25.0223 44.6098 25.4616 45.1477C25.901 45.6856 26.473 46.0871 27.1776 46.3523C27.8897 46.6174 28.6851 46.75 29.5639 46.75C30.4806 46.75 31.2836 46.6136 31.973 46.3409C32.67 46.0606 33.2154 45.6742 33.6094 45.1818C34.0033 44.6818 34.2041 44.0985 34.2116 43.4318C34.2041 42.8258 34.026 42.3258 33.6776 41.9318C33.3291 41.5303 32.8404 41.197 32.2116 40.9318C31.5904 40.6591 30.8632 40.4167 30.0298 40.2045L27.3821 39.5227C25.4654 39.0303 23.9503 38.2841 22.8366 37.2841C21.7306 36.2765 21.1776 34.9394 21.1776 33.2727C21.1776 31.9015 21.5488 30.7008 22.2912 29.6705C23.0412 28.6402 24.0601 27.8409 25.348 27.2727C26.6359 26.697 28.0942 26.4091 29.723 26.4091C31.3745 26.4091 32.8215 26.697 34.0639 27.2727C35.3139 27.8409 36.295 28.6326 37.0071 29.6477C37.7192 30.6553 38.0866 31.8144 38.1094 33.125H34.0526Z" fill="white"/>
<path d="M40 25.8636L43.6181 30.1522C44.0006 30.6055 44.6913 30.6283 45.1027 30.201L53 22" stroke="white" stroke-width="4" stroke-linecap="round"/>
<defs>
<linearGradient id="paint0_linear_78_491" x1="-2.47562e-08" y1="1.38879" x2="75.625" y2="5.60603" gradientUnits="userSpaceOnUse">
<stop stop-color="#FFB834"/>
<stop offset="0.5" stop-color="#FFAE3B"/>
<stop offset="1" stop-color="#FFA640"/>
</linearGradient>
</defs>
</svg>
