<svg width="72" height="72" viewBox="0 0 72 72" fill="none" xmlns="http://www.w3.org/2000/svg">
<rect width="72" height="72" rx="15" fill="url(#paint0_linear_78_563)"/>
<path fill-rule="evenodd" clip-rule="evenodd" d="M11 40.6438C11 36.7819 14.0513 33.6499 17.8184 33.6499H18.954C20.2091 33.6499 21.2276 34.6946 21.2276 35.9819V54.6318C21.2276 55.9191 20.2091 56.9639 18.954 56.9639H17.8184C14.0513 56.9639 11 53.8318 11 49.9699V40.6438ZM16.6805 38.6243C16.0029 39.0287 15.5449 39.7827 15.5449 40.6438V49.9699C15.5449 50.8332 16.003 51.5872 16.6805 51.9894V38.6243Z" fill="white"/>
<path fill-rule="evenodd" clip-rule="evenodd" d="M16.6805 35.9819C16.6805 34.6946 17.699 33.6499 18.954 33.6499H23.4989C26.0111 33.6499 28.0459 35.7371 28.0459 38.3139V52.3019C28.0459 54.8766 26.011 56.9638 23.4989 56.9638L18.954 56.9639C17.699 56.9639 16.6805 55.9191 16.6805 54.6317V35.9819ZM21.2275 38.314V52.302H23.4989V38.314H21.2275Z" fill="white"/>
<path fill-rule="evenodd" clip-rule="evenodd" d="M61 40.6438C61 36.7819 57.9487 33.6499 54.1816 33.6499H53.0459C51.7909 33.6499 50.7724 34.6946 50.7724 35.9819V54.6318C50.7724 55.9191 51.7909 56.9639 53.0459 56.9639H54.1816C57.9487 56.9639 61 53.8318 61 49.9699V40.6438ZM55.3195 38.6243C55.9971 39.0287 56.4551 39.7827 56.4551 40.6438V49.9699C56.4551 50.8332 55.997 51.5872 55.3195 51.9894V38.6243Z" fill="white"/>
<path fill-rule="evenodd" clip-rule="evenodd" d="M55.3195 35.9819C55.3195 34.6946 54.301 33.6499 53.0459 33.6499H48.5011C45.9889 33.6499 43.9541 35.7371 43.9541 38.3139V52.3019C43.9541 54.8766 45.989 56.9638 48.5011 56.9638L53.0459 56.9639C54.301 56.9639 55.3195 55.9191 55.3195 54.6317V35.9819ZM50.7725 38.314V52.302H48.5011V38.314H50.7725Z" fill="white"/>
<path fill-rule="evenodd" clip-rule="evenodd" d="M30.3173 19.6619C25.2973 19.6619 21.2276 23.8386 21.2276 28.988V35.9819H16.6805L16.6806 28.988C16.6806 21.2616 22.7871 15 30.3173 15H41.6828C49.213 15 55.3195 21.2616 55.3195 28.988L55.3195 35.9819H50.7724L50.7725 28.988C50.7725 23.8387 46.7028 19.6619 41.6828 19.6619H30.3173Z" fill="white"/>
<path d="M41.3314 38.5716V36.9491C41.3314 35.1303 39.8895 33.6506 38.1175 33.6506H33.882C32.1098 33.6506 30.6681 35.1304 30.6681 36.9491V38.5716C28.9608 39.7557 27.8367 41.7603 27.8367 44.0292V47.6201C27.8367 49.8889 28.9609 51.8935 30.6681 53.0776V54.7048C30.6681 56.5212 32.1077 58 33.8776 58H38.1224C39.8923 58 41.3319 56.5225 41.3319 54.7048V53.0776C43.0392 51.8935 44.1633 49.8889 44.1633 47.6201V44.0292C44.1633 41.7603 43.0392 39.7557 41.3319 38.5716H41.3314ZM31.8329 36.9491C31.8329 35.7896 32.7519 34.8475 33.8806 34.8475H38.1161C39.2448 34.8475 40.1639 35.7907 40.1639 36.9491V37.9334C39.4179 37.6201 38.6024 37.4471 37.7471 37.4471H34.2484C33.3942 37.4471 32.5787 37.6213 31.8316 37.9334V36.9491H31.8329ZM40.1651 54.7073C40.1651 55.8634 39.2483 56.8055 38.1219 56.8055H33.8771C32.7507 56.8055 31.8338 55.8646 31.8338 54.7073V53.7184C32.5798 54.0317 33.3953 54.2047 34.2506 54.2047H37.7494C38.6036 54.2047 39.419 54.0305 40.1662 53.7184V54.7073H40.1651ZM42.9964 47.6213C42.9964 50.5915 40.6423 53.0076 37.7483 53.0076H34.2496C31.3556 53.0076 29.0015 50.5915 29.0015 47.6213V44.0304C29.0015 41.0602 31.3556 38.644 34.2496 38.644H37.7483C40.6423 38.644 42.9964 41.0602 42.9964 44.0304V47.6213Z" fill="white"/>
<path d="M39.5056 45.1992H36.738V40.956C36.738 40.6251 36.4772 40.3575 36.1549 40.3575C35.8326 40.3575 35.5718 40.6252 35.5718 40.956V45.7977C35.5718 46.1285 35.8326 46.3962 36.1549 46.3962H39.5055C39.8279 46.3962 40.0887 46.1285 40.0887 45.7977C40.0887 45.4669 39.8279 45.1992 39.5056 45.1992Z" fill="white"/>
<defs>
<linearGradient id="paint0_linear_78_563" x1="-2.47562e-08" y1="1.38879" x2="75.625" y2="5.60603" gradientUnits="userSpaceOnUse">
<stop stop-color="#FFB834"/>
<stop offset="0.5" stop-color="#FFAE3B"/>
<stop offset="1" stop-color="#FFA640"/>
</linearGradient>
</defs>
</svg>
