<svg width="72" height="72" viewBox="0 0 72 72" fill="none" xmlns="http://www.w3.org/2000/svg">
<rect width="72" height="72" rx="15" fill="url(#paint0_linear_78_557)"/>
<path fill-rule="evenodd" clip-rule="evenodd" d="M52.0239 41.1061C51.732 41.3107 51.3148 41.1294 51.2815 40.7631L50.8976 36.6185C50.8486 36.2171 51.2423 35.9716 51.5655 36.1197L52.9424 36.751C54.6974 30.7436 52.9875 24.3037 48.6 19.9389C41.9091 13.2825 31.0619 13.2825 24.3714 19.9389C20.8654 23.4269 18.934 28.3762 19.4297 33.575C19.4787 34.0835 19.5492 34.596 19.6412 35.1104C19.3239 35.1591 19.0125 35.2176 18.7089 35.2877C18.5228 34.3661 18.4053 32.9417 18.4053 31.9888C18.4053 22.0551 26.5007 14 36.486 14C47.5899 14 56.0765 23.8674 54.3451 34.8067C54.2178 35.6076 54.0395 36.389 53.8123 37.1469L55.3832 37.8659C55.7142 38.0121 55.7749 38.468 55.4674 38.6843L52.0239 41.1061ZM24.579 39.1166C25.3194 39.023 26.0989 38.988 26.9372 39.0269C23.5898 34.403 24.1011 28.0252 28.1672 23.9802C32.7447 19.4264 40.1642 19.4264 44.7417 23.9802C49.0703 28.2865 49.3407 35.1825 45.3548 39.8081C43.9249 41.4663 42.0348 42.7212 39.8823 43.3759C40.7598 43.6448 41.8135 43.863 43.3334 44.0657C45.3998 42.8751 47.1254 41.1662 48.33 39.1183C51.4854 33.7519 50.5786 26.9358 46.1735 22.5536C40.8048 17.2126 32.1026 17.2126 26.7334 22.5536C22.3186 26.9496 21.4335 33.7641 24.579 39.1166ZM28.3024 39.1517C30.0515 39.3855 32.0611 39.9272 34.4799 40.8937C35.0812 41.1333 38.1289 42.7292 38.2367 42.7428C40.7673 42.3219 42.9982 41.0203 44.5967 39.1633C48.2398 34.9369 47.9949 28.6235 44.0345 24.6858C39.8488 20.5217 33.062 20.5217 28.8766 24.6858C24.9103 28.6316 24.6808 34.935 28.3024 39.1517ZM28.2064 40.1532C28.0928 40.1785 27.9753 40.1649 27.8696 40.1123C24.295 39.7148 21.8701 40.689 19.1258 41.8679L21.0335 54.4868C21.5369 54.3368 22.2185 54.1614 22.6612 54.1088C23.948 53.9568 26.4532 54.4323 29.2815 54.9681C31.6083 55.4085 33.8647 55.8275 36.2036 56.0886C37.3494 56.2035 39.3785 56.1236 41.7212 55.7534C43.5937 55.4572 45.662 54.974 47.6324 54.2569C49.2209 53.6782 53.1932 52.1759 56.2523 50.3033C59.0513 48.5905 61.0668 46.5835 59.3882 44.8531C58.8731 44.4595 58.2561 44.438 57.5137 44.6699C56.6519 44.9388 55.6295 45.537 54.4229 46.3087C53.7746 46.7237 52.6288 47.2908 51.3811 47.8247C50.2235 48.3215 48.9641 48.797 47.9221 49.1029C45.7989 50.1629 43.0411 50.8664 41.8168 51.0164C38.6614 51.4041 35.3395 50.1415 33.0204 49.2607C32.2056 48.9509 31.522 48.6918 31.048 48.5807C30.4075 48.4307 30.6347 47.4642 31.2752 47.6123C31.8177 47.7389 32.5307 48.0098 33.3769 48.3313C35.6 49.175 38.7867 50.387 41.6974 50.0284C43.0019 49.8687 45.9242 49.0892 47.9261 47.9805C49.1208 47.318 49.9866 46.5561 49.9024 45.7864C49.7437 44.3601 46.0927 45.3987 44.1636 45.1746C40.2345 44.705 39.2043 44.3718 36.374 42.9318C35.7434 42.6103 35.0226 42.2439 34.1059 41.8153C31.7947 40.8916 29.8754 40.3753 28.2064 40.1532ZM36.4994 33.2514C37.894 33.2689 38.6109 34.6875 37.6492 35.5526C36.6267 36.4724 34.8326 35.8352 34.8209 34.6115C34.815 34.0464 34.3508 33.5924 33.7828 33.5963C33.2148 33.6002 32.7564 34.0639 32.7623 34.629C32.776 36.1859 33.9022 37.4642 35.3673 37.887L35.3595 38.8788C35.3556 39.4439 35.8119 39.9076 36.38 39.9115C36.948 39.9154 37.4122 39.4614 37.4181 38.8963L37.4259 37.922C38.9595 37.5362 40.1504 36.2346 40.1504 34.6231V34.0269H40.0936C39.8135 32.5343 38.5286 31.4567 37.0342 31.2443V31.1995H36.4759C34.9736 31.1995 34.3155 29.7478 35.2615 28.8983C36.284 27.9785 38.0781 28.6157 38.0898 29.8394C38.0957 30.4045 38.5599 30.8585 39.1279 30.8546C39.6959 30.8507 40.1543 30.387 40.1484 29.8219C40.1347 28.265 39.0085 26.9868 37.5434 26.5639L37.5512 25.5721C37.5552 25.007 37.0988 24.5452 36.5307 24.5394C35.9627 24.5355 35.4985 24.9895 35.4927 25.5546L35.4848 26.5289C33.9512 26.9147 32.7603 28.2163 32.7603 29.8278V30.424H32.8171C33.0972 31.9166 34.3821 32.9942 35.8766 33.2066V33.2455L36.4994 33.2514ZM17.3221 39.6329L13.3793 40.2292C13.1345 40.2662 12.968 40.4942 13.0052 40.7358L15.5573 57.6202C15.5945 57.8677 15.8159 58.0333 16.0685 57.9943L20.0113 57.3981C20.2562 57.361 20.4227 57.1331 20.3854 56.8895L17.8333 40.0071C17.7961 39.7596 17.5748 39.594 17.3221 39.6329Z" fill="white"/>
<defs>
<linearGradient id="paint0_linear_78_557" x1="-2.47562e-08" y1="1.38879" x2="75.625" y2="5.60603" gradientUnits="userSpaceOnUse">
<stop stop-color="#FFB834"/>
<stop offset="0.5" stop-color="#FFAE3B"/>
<stop offset="1" stop-color="#FFA640"/>
</linearGradient>
</defs>
</svg>
