<svg width="72" height="72" viewBox="0 0 72 72" fill="none" xmlns="http://www.w3.org/2000/svg">
<rect width="72" height="72" rx="15" fill="url(#paint0_linear_78_507)"/>
<path fill-rule="evenodd" clip-rule="evenodd" d="M20.4115 51.041C20.3921 49.6331 21.1697 48.2696 22.4478 46.7501L14.834 41.8618C14.3555 41.6479 14.3613 41.3581 14.6317 41.0202L16.2062 39.6837C16.4932 39.5102 16.7994 39.4384 17.1328 39.5346L26.4588 41.2584L34.0712 32.9927L15.781 20.4592C15.319 20.1827 15.2756 19.8782 15.7415 19.533L18.3174 17.4932L42.0083 24.5053L48.8534 17.1701C51.1578 15.1853 53.414 14.3175 55.1643 14.7756C56.129 15.0288 56.4726 15.3209 56.7842 16.2271C57.3895 18.0043 56.5338 20.3655 54.46 22.7767L47.1248 29.6218L54.1369 53.3127L52.0971 55.8886C51.7519 56.351 51.4473 56.3076 51.1709 55.8491L38.634 37.5623L30.3682 45.1712L32.092 54.4972C32.1882 54.8271 32.1198 55.1334 31.9429 55.4239L30.6064 56.9983C30.272 57.2688 29.9787 57.2745 29.7648 56.796L24.8765 49.1823C23.3501 50.4637 21.9866 51.2414 20.5716 51.2183C20.4423 51.2127 20.4136 51.1668 20.4115 51.041Z" fill="white"/>
<defs>
<linearGradient id="paint0_linear_78_507" x1="-2.47562e-08" y1="1.38879" x2="75.625" y2="5.60603" gradientUnits="userSpaceOnUse">
<stop stop-color="#FFB834"/>
<stop offset="0.5" stop-color="#FFAE3B"/>
<stop offset="1" stop-color="#FFA640"/>
</linearGradient>
</defs>
</svg>
