<svg width="570" height="263" viewBox="0 0 570 263" fill="none" xmlns="http://www.w3.org/2000/svg">
<g clip-path="url(#clip0_88_732)">
<rect x="362.665" y="-12.2253" width="362.317" height="473.686" rx="34" transform="rotate(53.1093 362.665 -12.2253)" fill="url(#paint0_linear_88_732)"/>
<path d="M252.673 213.653C251.205 213.653 249.675 213.596 248.15 213.479C239.525 212.737 231.531 209.746 224.637 205.137C220.837 207.822 216.175 210.496 210.921 212.723C215.149 224.65 234.057 238.575 252.682 238.575C271.031 238.575 291.03 225.077 295.766 213.28C290.07 211.01 285.058 208.167 280.986 205.313C272.639 210.726 262.893 213.653 252.673 213.653Z" fill="white"/>
<path d="M305.081 216.286C299.086 232.218 275.614 248.335 252.682 248.335C229.568 248.335 207.303 231.94 201.659 215.88C201.378 215.95 201.127 216.057 200.843 216.124C192.792 218.018 186.194 223.048 182.742 229.926C180.089 235.221 177.172 262.142 180.567 270.041C181.337 271.837 183.105 273 185.066 273H320.299C322.259 273 324.028 271.837 324.797 270.041C328.192 262.142 325.275 235.221 322.622 229.926C319.252 223.211 312.873 218.28 305.081 216.286Z" fill="white"/>
<path d="M401.89 82H314.699C307.992 82 302.508 87.4652 302.508 94.1503V144.655C302.508 151.34 307.992 156.805 314.699 156.805H317.832V168.517C317.832 170.371 318.86 172.03 320.475 172.859C321.21 173.25 321.944 173.396 322.728 173.396C323.755 173.396 324.735 173.104 325.567 172.518L347.597 156.805H401.89C408.597 156.805 414.031 151.34 414.031 144.655V94.1503C414.031 87.4652 408.597 82 401.89 82Z" fill="white"/>
<path d="M248.901 203.748C250.174 203.845 251.447 203.894 252.671 203.894C263.98 203.894 274.554 199.551 282.534 191.597C290.514 183.644 294.871 173.104 294.871 161.832V148.949C294.871 124.502 273.771 104.886 248.901 107.033C227.36 108.936 210.47 128.162 210.47 150.901V159.928C210.47 182.619 227.36 201.893 248.901 203.748Z" fill="white"/>
</g>
<defs>
<linearGradient id="paint0_linear_88_732" x1="362.665" y1="-3.08854" x2="743.714" y2="13.1648" gradientUnits="userSpaceOnUse">
<stop stop-color="#FFB834"/>
<stop offset="0.5" stop-color="#FFAE3B"/>
<stop offset="1" stop-color="#FFA640"/>
</linearGradient>
<clipPath id="clip0_88_732">
<rect width="569" height="263" fill="white" transform="translate(0.96875)"/>
</clipPath>
</defs>
</svg>
