<svg width="32" height="31" viewBox="0 0 32 31" fill="none" xmlns="http://www.w3.org/2000/svg">
<path fill-rule="evenodd" clip-rule="evenodd" d="M0.988291 15.4243C1.58532 14.8174 2.50599 14.5683 3.70891 14.4656L2.53702 9.1495C2.42323 8.85508 2.55032 8.7343 2.81189 8.70561L4.06358 8.80677C4.26161 8.85508 4.42417 8.95473 4.52613 9.13742L7.79502 13.836L14.6224 13.5582L12.1471 0.451414C12.0673 0.137371 12.1796 -0.0105911 12.5284 0.0407428L14.5131 0.268726L21.6848 13.3242L27.7822 13.1158C29.6265 13.2517 30.9698 13.842 31.5255 14.7811C31.8314 15.299 31.8535 15.5693 31.5979 16.0871C31.0939 17.1002 29.7107 17.7404 27.7822 17.8838L21.6848 17.6755L14.5131 30.7309L12.5284 30.9589C12.1811 31.0087 12.0688 30.8607 12.1471 30.5482L14.6195 17.4414L7.79354 17.1621L4.52466 21.8607C4.42416 22.0419 4.26308 22.143 4.0621 22.1913L2.81041 22.2925C2.55032 22.2653 2.42175 22.143 2.53554 21.8486L3.70743 16.5325C2.50007 16.4284 1.57941 16.1792 0.980901 15.5678C0.927701 15.5104 0.935089 15.4787 0.988291 15.4243Z" fill="url(#paint0_linear_10_997)"/>
<defs>
<linearGradient id="paint0_linear_10_997" x1="13.8084" y1="-2.69464" x2="32.248" y2="17.4856" gradientUnits="userSpaceOnUse">
<stop stop-color="#FFB834"/>
<stop offset="1" stop-color="#FF964A"/>
</linearGradient>
</defs>
</svg>
