<svg width="18" height="28" viewBox="0 0 18 28" fill="none" xmlns="http://www.w3.org/2000/svg">
<path d="M8.17557 28V0H10.0534V28H8.17557ZM13.5916 8.95781C13.4847 8.0026 13.0344 7.25886 12.2405 6.72656C11.4542 6.19427 10.4313 5.92813 9.17176 5.92813C8.28626 5.92813 7.52672 6.05573 6.89313 6.31094C6.25954 6.56615 5.77481 6.9125 5.43893 7.35C5.10305 7.7875 4.9313 8.28698 4.92366 8.84844C4.92366 9.3151 5.03435 9.71979 5.25573 10.0625C5.48473 10.4052 5.79389 10.6969 6.18321 10.9375C6.57252 11.1708 7.00382 11.3677 7.4771 11.5281C7.95038 11.6885 8.42748 11.8234 8.9084 11.9328L11.1069 12.4578C11.9924 12.6547 12.8435 12.9208 13.6603 13.2563C14.4847 13.5917 15.2214 14.0146 15.8702 14.525C16.5267 15.0354 17.0458 15.6516 17.4275 16.3734C17.8092 17.0953 18 17.9411 18 18.9109C18 20.2234 17.6489 21.3792 16.9466 22.3781C16.2443 23.3698 15.229 24.1464 13.9008 24.7078C12.5802 25.262 10.9809 25.5391 9.10305 25.5391C7.27863 25.5391 5.69466 25.2693 4.35115 24.7297C3.01527 24.1901 1.96947 23.4026 1.21374 22.3672C0.465649 21.3318 0.0610687 20.0703 0 18.5828H4.17939C4.24046 19.363 4.49237 20.012 4.93511 20.5297C5.37786 21.0474 5.9542 21.4339 6.66412 21.6891C7.38168 21.9443 8.18321 22.0719 9.0687 22.0719C9.99237 22.0719 10.8015 21.9406 11.4962 21.6781C12.1985 21.4083 12.7481 21.0365 13.145 20.5625C13.542 20.0813 13.7443 19.5198 13.7519 18.8781C13.7443 18.2948 13.5649 17.8135 13.2137 17.4344C12.8626 17.0479 12.3702 16.7271 11.7366 16.4719C11.1107 16.2094 10.3779 15.976 9.53817 15.7719L6.87023 15.1156C4.93893 14.6417 3.41221 13.9234 2.29008 12.9609C1.17557 11.9911 0.618321 10.7042 0.618321 9.1C0.618321 7.78021 0.992367 6.62448 1.74046 5.63281C2.49618 4.64115 3.5229 3.87188 4.82061 3.325C6.11832 2.77083 7.58779 2.49375 9.22901 2.49375C10.8931 2.49375 12.3511 2.77083 13.6031 3.325C14.8626 3.87188 15.8511 4.63386 16.5687 5.61094C17.2863 6.58073 17.6565 7.69635 17.6794 8.95781H13.5916Z" fill="url(#paint0_linear_10_994)"/>
<defs>
<linearGradient id="paint0_linear_10_994" x1="-1.46562" y1="3.62445" x2="21.5168" y2="4.89908" gradientUnits="userSpaceOnUse">
<stop stop-color="#FFB834"/>
<stop offset="1" stop-color="#FF964A"/>
</linearGradient>
</defs>
</svg>
