<svg width="28" height="28" viewBox="0 0 28 28" fill="none" xmlns="http://www.w3.org/2000/svg">
<path d="M3.94619 27.44L1.07623 24.4533L24.0538 0.559999L26.9238 3.56533L3.94619 27.44ZM21.5426 28C20.3587 28 19.2765 27.7013 18.296 27.104C17.3274 26.4942 16.5501 25.6853 15.9641 24.6773C15.3782 23.6569 15.0852 22.5244 15.0852 21.28C15.0852 20.0604 15.3842 18.9404 15.9821 17.92C16.58 16.8996 17.3692 16.0844 18.3498 15.4747C19.3303 14.8649 20.3946 14.56 21.5426 14.56C22.7265 14.56 23.8087 14.8649 24.7892 15.4747C25.7698 16.072 26.5471 16.8809 27.1211 17.9013C27.707 18.9093 28 20.0356 28 21.28C28 22.5244 27.707 23.6569 27.1211 24.6773C26.5471 25.6853 25.7698 26.4942 24.7892 27.104C23.8087 27.7013 22.7265 28 21.5426 28ZM21.5426 24.1547C22.0329 24.1547 22.4873 24.024 22.9058 23.7627C23.3363 23.5013 23.6771 23.1529 23.9283 22.7173C24.1794 22.2818 24.3049 21.8027 24.3049 21.28C24.3049 20.7573 24.1794 20.2782 23.9283 19.8427C23.6771 19.4071 23.3363 19.0587 22.9058 18.7973C22.4873 18.536 22.0329 18.4053 21.5426 18.4053C21.0404 18.4053 20.58 18.536 20.1614 18.7973C19.7429 19.0587 19.4021 19.4071 19.139 19.8427C18.8879 20.2782 18.7623 20.7573 18.7623 21.28C18.7623 21.8027 18.8879 22.2818 19.139 22.7173C19.4021 23.1529 19.7429 23.5013 20.1614 23.7627C20.58 24.024 21.0404 24.1547 21.5426 24.1547ZM6.4574 13.44C5.27354 13.44 4.19133 13.1413 3.21076 12.544C2.23019 11.9342 1.44694 11.1253 0.860987 10.1173C0.286996 9.09689 0 7.96445 0 6.72C0 5.50044 0.298954 4.38044 0.896861 3.36C1.49477 2.33955 2.28401 1.52444 3.26457 0.914665C4.24514 0.304888 5.30942 0 6.4574 0C7.64126 0 8.71749 0.304888 9.6861 0.914665C10.6667 1.512 11.4499 2.32089 12.0359 3.34133C12.6218 4.34933 12.9148 5.47556 12.9148 6.72C12.9148 7.96445 12.6218 9.09689 12.0359 10.1173C11.4499 11.1253 10.6667 11.9342 9.6861 12.544C8.71749 13.1413 7.64126 13.44 6.4574 13.44ZM6.4574 9.59467C6.95964 9.59467 7.42003 9.464 7.83857 9.20267C8.2571 8.94133 8.59193 8.59289 8.84305 8.15733C9.09417 7.72178 9.21973 7.24267 9.21973 6.72C9.21973 6.19733 9.09417 5.71822 8.84305 5.28267C8.59193 4.84711 8.2571 4.49867 7.83857 4.23733C7.42003 3.976 6.95964 3.84533 6.4574 3.84533C5.95516 3.84533 5.49477 3.976 5.07623 4.23733C4.6577 4.49867 4.32287 4.84711 4.07175 5.28267C3.82063 5.71822 3.69507 6.19733 3.69507 6.72C3.69507 7.24267 3.82063 7.72178 4.07175 8.15733C4.32287 8.59289 4.6577 8.94133 5.07623 9.20267C5.49477 9.464 5.95516 9.59467 6.4574 9.59467Z" fill="url(#paint0_linear_10_989)"/>
<defs>
<linearGradient id="paint0_linear_10_989" x1="-9.6274e-09" y1="0.540084" x2="29.4097" y2="2.18012" gradientUnits="userSpaceOnUse">
<stop stop-color="#FFB834"/>
<stop offset="1" stop-color="#FF964A"/>
</linearGradient>
</defs>
</svg>
