<svg width="24" height="30" viewBox="0 0 24 30" fill="none" xmlns="http://www.w3.org/2000/svg">
<path d="M24 15C24 13.3455 22.6545 12 21 12H19.5V7.5C19.5 3.3645 16.1355 0 12 0C7.8645 0 4.5 3.3645 4.5 7.5V12H3C1.3455 12 0 13.3455 0 15V27C0 28.6545 1.3455 30 3 30H21C22.6545 30 24 28.6545 24 27V15ZM7.5 7.5C7.5 5.019 9.519 3 12 3C14.481 3 16.5 5.019 16.5 7.5V12H7.5V7.5Z" fill="url(#paint0_linear_13_1017)"/>
<defs>
<linearGradient id="paint0_linear_13_1017" x1="-8.25206e-09" y1="0.578662" x2="25.2365" y2="1.70452" gradientUnits="userSpaceOnUse">
<stop stop-color="#FFB834"/>
<stop offset="1" stop-color="#FF964A"/>
</linearGradient>
</defs>
</svg>
