<svg width="30" height="27" viewBox="0 0 30 27" fill="none" xmlns="http://www.w3.org/2000/svg">
<path d="M27 15V12.4395C27 5.77647 21.7815 0.197973 15.3675 0.00447281C12.0615 -0.0720272 8.991 1.10847 6.6435 3.38847C5.48616 4.50346 4.56665 5.84131 3.94046 7.32135C3.31426 8.80139 2.99434 10.3929 3 12V15C1.3455 15 0 16.3455 0 18V24C0 25.6545 1.3455 27 3 27H6V12C5.99558 10.7947 6.23533 9.60104 6.70478 8.49095C7.17423 7.38086 7.86367 6.37736 8.7315 5.54097C9.59568 4.69974 10.6207 4.04151 11.7452 3.60567C12.8697 3.16983 14.0706 2.96536 15.276 3.00447C20.088 3.14847 24 7.38147 24 12.4395V27H27C28.6545 27 30 25.6545 30 24V18C30 16.3455 28.6545 15 27 15Z" fill="url(#paint0_linear_13_1024)"/>
<path d="M7.5 15H10.5V27H7.5V15ZM19.5 15H22.5V27H19.5V15Z" fill="url(#paint1_linear_13_1024)"/>
<defs>
<linearGradient id="paint0_linear_13_1024" x1="-2.44271" y1="3.49585" x2="35.6293" y2="7.14552" gradientUnits="userSpaceOnUse">
<stop stop-color="#FFB834"/>
<stop offset="1" stop-color="#FF964A"/>
</linearGradient>
<linearGradient id="paint1_linear_13_1024" x1="-2.44271" y1="3.49585" x2="35.6293" y2="7.14552" gradientUnits="userSpaceOnUse">
<stop stop-color="#FFB834"/>
<stop offset="1" stop-color="#FF964A"/>
</linearGradient>
</defs>
</svg>
