<svg width="73" height="72" viewBox="0 0 73 72" fill="none" xmlns="http://www.w3.org/2000/svg">
<rect x="0.5" width="72" height="72" rx="15" fill="url(#paint0_linear_75_353)"/>
<path fill-rule="evenodd" clip-rule="evenodd" d="M35.0742 15.8321H32.8762V15.8268C32.6353 15.8268 32.4068 15.6776 32.3109 15.4328C32.082 14.8472 31.636 14.4422 31.1075 14.2185C30.7698 14.0746 30.3982 14 30.0243 14C29.6504 14 29.2788 14.0746 28.9416 14.2132C28.4273 14.437 27.9914 14.8257 27.757 15.3793C27.6794 15.6403 27.4464 15.8321 27.1706 15.8321H25.0125C24.4867 15.8321 24.1541 16.1251 24.0109 16.5028C23.9504 16.6625 23.9206 16.8384 23.9206 17.0196C23.9206 17.1956 23.9504 17.371 24.0109 17.5307C24.1536 17.9089 24.4867 18.2072 25.0125 18.2072H35.0747C35.6005 18.2072 35.934 17.9089 36.0767 17.5307C36.1038 17.4614 36.1253 17.3868 36.14 17.307C36.1418 17.2912 36.1446 17.2749 36.1478 17.2592C36.1606 17.1846 36.1671 17.0995 36.1671 17.0196C36.1671 16.8384 36.1368 16.663 36.0767 16.5028C35.9335 16.1247 35.6 15.8321 35.0742 15.8321ZM46.6697 30.6984L47.5497 29.1107C48.1498 28.0283 47.9502 26.986 47.3726 26.2364C47.1386 25.9328 46.8427 25.6736 46.5114 25.4743C46.1802 25.2749 45.8182 25.1377 45.4493 25.0784C44.5372 24.9312 43.5706 25.273 42.9696 26.3578L42.0905 27.9436L46.6697 30.6984ZM36.6749 43.2283L34.8136 42.1091L34.9724 46.2962L38.5317 44.3461L36.6745 43.2288L36.6749 43.2283ZM45.9618 31.9754L45.4755 32.8537L43.2178 31.4949C43.2077 31.4882 43.1967 31.481 43.1861 31.4748C43.1751 31.4681 43.1636 31.4614 43.1526 31.4557L40.8967 30.0989L41.4803 29.0456L46.0595 31.7999L45.9847 31.9352L45.9838 31.9367C45.976 31.9496 45.9691 31.962 45.9622 31.9754H45.9618ZM37.6389 40.213L35.8789 39.153L34.9949 40.748L36.7552 41.8074L37.6389 40.213ZM39.853 42.9988L39.5736 43.5027L37.8127 42.4442L38.5835 41.0539C39.0776 41.7754 39.4928 42.4208 39.8534 42.9993L39.853 42.9988ZM50.8786 48.6652C50.8736 48.6772 50.8672 48.6886 50.8608 48.7001C50.8548 48.7116 50.8479 48.7221 50.8415 48.7326L50.5814 49.2026L53.168 50.7602L58 42.034L55.4129 40.4769L55.1156 41.0143C55.1101 41.0267 55.1032 41.0382 55.0972 41.0501C55.0908 41.0621 55.0844 41.0726 55.0775 41.0831L50.8791 48.6657L50.8786 48.6652ZM40.2622 35.4755L42.0446 32.2589L40.2856 31.2009L38.5037 34.417L40.2622 35.4755ZM43.0815 37.1728L41.3216 36.1133L43.104 32.8962L44.8648 33.9552L43.0815 37.1728ZM19.4088 26.2239C19.0702 26.2239 18.7954 25.938 18.7954 25.5847C18.7954 25.2314 19.0702 24.9455 19.4088 24.9455H40.5132C40.8518 24.9455 41.1266 25.2314 41.1266 25.5847C41.1266 25.938 40.8522 26.2239 40.5132 26.2239H19.4088ZM19.4088 31.6599C19.0702 31.6599 18.7954 31.374 18.7954 31.0206C18.7954 30.6673 19.0702 30.3824 19.4088 30.3824H37.5466C37.8848 30.3824 38.1596 30.6683 38.1596 31.0206C38.1596 31.373 37.8848 31.6599 37.5466 31.6599H19.4088ZM19.4088 37.0963C19.0702 37.0963 18.7954 36.8104 18.7954 36.4571C18.7954 36.1037 19.0702 35.8183 19.4088 35.8183H32.1421C32.4802 35.8183 32.7546 36.1042 32.7546 36.4571C32.7546 36.8099 32.4802 37.0963 32.1421 37.0963H19.4088ZM19.4088 47.9691H34.3998C34.5177 47.9691 34.6278 47.9347 34.721 47.8744L40.0824 44.937C40.181 44.8835 40.2668 44.8008 40.3269 44.6927L40.5935 44.2108C41.4666 45.6513 42.0318 46.5716 42.9214 47.1955C43.2632 47.436 43.6403 47.623 44.0863 47.7659V56.5992C44.0863 56.9855 43.9353 57.3354 43.6926 57.5879C43.4485 57.8422 43.1109 58 42.7402 58H17.3461C16.9745 58 16.6377 57.8418 16.3936 57.5879C16.1509 57.335 16 56.985 16 56.5992V19.4431C16 19.0544 16.1509 18.703 16.3936 18.4525C16.6377 18.1967 16.9745 18.037 17.3461 18.037H22.8855C23.2085 18.8517 23.9183 19.4857 25.012 19.4857H35.0742C36.1666 19.4857 36.8764 18.8522 37.1998 18.0423H42.7406C43.1118 18.0423 43.449 18.1967 43.6931 18.4525C43.9358 18.703 44.0867 19.0544 44.0867 19.4431V23.9004C43.2467 24.1346 42.4699 24.7098 41.9107 25.7191L37.4439 33.7792L37.1576 33.6067C36.1093 32.9761 35.093 33.1965 34.3548 33.8199C34.0819 34.0508 33.8493 34.3391 33.6712 34.6618C33.4937 34.9831 33.3703 35.3369 33.3143 35.7002C33.1643 36.6808 33.4873 37.7135 34.5329 38.3427L34.8191 38.5148L33.6299 40.6609C33.5735 40.7618 33.5437 40.8804 33.5487 41.0056L33.7639 46.6902H19.4088C19.0702 46.6902 18.7954 46.9761 18.7954 47.3294C18.7954 47.6827 19.0702 47.9686 19.4088 47.9686V47.9691ZM19.4088 42.5327H32.1848C32.5229 42.5327 32.7972 42.2468 32.7972 41.8935C32.7972 41.5402 32.5229 41.2543 32.1848 41.2543H19.4088C19.0702 41.2543 18.7954 41.5406 18.7954 41.8935C18.7954 42.2463 19.0702 42.5327 19.4088 42.5327ZM44.801 46.6448C44.3083 46.5267 43.928 46.3632 43.6068 46.137C42.9127 45.6499 42.3988 44.8017 41.5895 43.4669C41.4363 43.214 41.2725 42.9434 41.0954 42.6565C41.0881 42.6431 41.0798 42.6297 41.072 42.6168C40.5696 41.8017 39.9613 40.8469 39.1749 39.732C39.1258 39.6603 39.0616 39.5972 38.9831 39.5503L35.1463 37.2402C34.6122 36.9189 34.4461 36.3954 34.5218 35.9006C34.554 35.6902 34.6269 35.4841 34.7301 35.2967C34.8334 35.1103 34.9678 34.9434 35.127 34.8091C35.4963 34.4969 36.0102 34.3883 36.5446 34.7106L40.1783 36.8983H40.1792L40.1801 36.8993L43.8367 39.1004C44.1289 39.2769 44.5033 39.1726 44.6721 38.8681C44.8419 38.5635 44.7423 38.1739 44.4492 37.997L44.1404 37.811L46.6995 33.1926C47.713 34.0006 48.564 35.1237 49.6257 36.5254C50.457 37.6227 51.4118 38.8824 52.6514 40.2804C52.6918 40.3268 52.74 40.3674 52.7946 40.4004L53.7323 40.965L50.1079 47.5111L49.283 47.0148C49.1926 46.9608 49.088 46.9297 48.9765 46.9297C47.4166 46.9297 46.2761 46.8881 45.4021 46.759C45.2098 46.7308 45.0327 46.6983 44.8676 46.6605C44.8455 46.6543 44.8231 46.6491 44.8006 46.6453L44.801 46.6448Z" fill="white"/>
<defs>
<linearGradient id="paint0_linear_75_353" x1="0.5" y1="1.38879" x2="76.125" y2="5.60603" gradientUnits="userSpaceOnUse">
<stop stop-color="#FFB834"/>
<stop offset="0.5" stop-color="#FFAE3B"/>
<stop offset="1" stop-color="#FFA640"/>
</linearGradient>
</defs>
</svg>
