<svg width="73" height="72" viewBox="0 0 73 72" fill="none" xmlns="http://www.w3.org/2000/svg">
<rect x="0.5" width="72" height="72" rx="15" fill="url(#paint0_linear_75_361)"/>
<path fill-rule="evenodd" clip-rule="evenodd" d="M30.2778 43.3819V41.4266H19.125V59.9265H15V37.3657H30.2778V31.8007H29.6667L26.9167 35.7112C26.4583 36.4633 25.3889 36.7641 24.4722 36.7641H23.8611C22.6389 36.7641 21.5694 35.7112 21.5694 34.508C21.5694 33.3047 22.6389 32.4023 23.8611 32.4023L27.6806 26.6869C28.9028 25.0324 30.8889 24.882 32.7222 24.882H41.125C43.1111 24.882 45.0972 25.0324 46.1667 26.6869L50.1389 32.4023C51.3611 32.4023 52.2778 33.3047 52.2778 34.508C52.2778 35.7112 51.3611 36.7641 50.1389 36.7641H49.375C48.6111 36.7641 47.5417 36.4633 46.9306 35.7112L44.3333 31.8007H43.5694V37.3657H59V59.9265H54.875V41.4266H43.5694V43.3819C43.4167 44.4347 42.3472 45.3372 41.2778 45.3372H32.7222C31.5 45.3372 30.5833 44.4347 30.2778 43.3819ZM42.6528 49.2477V57.3696C42.6528 57.9712 42.5 58.4224 42.0417 58.8737C41.2778 60.0769 39.5972 60.3777 38.5278 59.4753C37.7639 59.0241 37.4583 58.272 37.4583 57.3696H37.3056L37.4583 49.2477H36.6944L36.5417 57.3696C36.5417 57.9712 36.3889 58.4224 36.0833 58.8737C35.3194 60.0769 33.6389 60.3777 32.5694 59.4753C31.8056 59.0241 31.3472 58.272 31.3472 57.3696V49.2477H29.9722V59.9265H26.9167V46.2396C32.4167 46.2396 41.5833 46.2396 47.0833 46.2396V59.9265H44.0278V49.2477H42.6528ZM37.3056 13C40.0556 13 42.5 15.2561 42.5 17.9634C42.5 20.8211 40.0556 23.0772 37.3056 23.0772C34.4028 23.0772 32.1111 20.8211 32.1111 17.9634C32.1111 15.2561 34.4028 13 37.3056 13Z" fill="white"/>
<defs>
<linearGradient id="paint0_linear_75_361" x1="0.5" y1="1.38879" x2="76.125" y2="5.60603" gradientUnits="userSpaceOnUse">
<stop stop-color="#FFB834"/>
<stop offset="0.5" stop-color="#FFAE3B"/>
<stop offset="1" stop-color="#FFA640"/>
</linearGradient>
</defs>
</svg>
