<svg width="73" height="72" viewBox="0 0 73 72" fill="none" xmlns="http://www.w3.org/2000/svg">
<rect x="0.5" width="72" height="72" rx="15" fill="url(#paint0_linear_75_357)"/>
<path fill-rule="evenodd" clip-rule="evenodd" d="M12.5 18.3999C12.5 14.866 15.366 12 18.9 12H54.1C57.634 12 60.5 14.866 60.5 18.3999V23.1999C60.5 23.6239 60.332 24.0319 60.032 24.3318C59.732 24.6318 59.324 24.7998 58.9 24.7998C55.808 24.7998 53.2998 27.3078 53.2998 30.4C53.2998 30.672 53.3198 30.938 53.3558 31.2H38.9C34.924 31.2 31.7002 34.424 31.7002 38.3997V48.7993H18.9002C15.3662 48.7993 12.5002 45.9333 12.5002 42.3994V37.5994C12.5002 36.7154 13.2162 35.9995 14.1002 35.9995C17.1922 35.9995 19.7005 33.4915 19.7005 30.3993C19.7005 27.307 17.1925 24.7991 14.1002 24.7991C13.2162 24.7991 12.5002 24.0831 12.5002 23.1991L12.5 18.3999ZM26.9 22.3999C26.9 23.2839 27.616 23.9999 28.5 23.9999C29.384 23.9999 30.1 23.2839 30.1 22.3999V19.1999C30.1 18.3159 29.384 17.5999 28.5 17.5999C27.616 17.5999 26.9 18.3159 26.9 19.1999V22.3999ZM28.5 33.5998C27.616 33.5998 26.9 32.8838 26.9 31.9998V28.7998C26.9 27.9158 27.616 27.1998 28.5 27.1998C29.384 27.1998 30.1 27.9158 30.1 28.7998V31.9998C30.1 32.8838 29.384 33.5998 28.5 33.5998ZM26.9 41.5997C26.9 42.4837 27.616 43.1997 28.5 43.1997C29.384 43.1997 30.1 42.4837 30.1 41.5997V38.3997C30.1 37.5157 29.384 36.7997 28.5 36.7997C27.616 36.7997 26.9 37.5157 26.9 38.3997V41.5997Z" fill="white"/>
<path d="M34.9 38.4C34.9 36.19 36.69 34.4 38.9 34.4H56.5C58.71 34.4 60.5 36.19 60.5 38.4V50.4001C60.5 52.6101 58.71 54.4001 56.5 54.4001H52.304C52.432 55.1961 52.6 55.916 52.866 56.8H53.7C54.584 56.8 55.3 57.516 55.3 58.4C55.3 59.284 54.584 60 53.7 60H41.6998C40.8158 60 40.0998 59.284 40.0998 58.4C40.0998 57.516 40.8158 56.8 41.6998 56.8H42.5158C42.7718 55.9241 42.9478 55.204 43.0838 54.4001H38.8998C36.6898 54.4001 34.8998 52.6101 34.8998 50.4001L34.9 38.4Z" fill="white"/>
<defs>
<linearGradient id="paint0_linear_75_357" x1="0.5" y1="1.38879" x2="76.125" y2="5.60603" gradientUnits="userSpaceOnUse">
<stop stop-color="#FFB834"/>
<stop offset="0.5" stop-color="#FFAE3B"/>
<stop offset="1" stop-color="#FFA640"/>
</linearGradient>
</defs>
</svg>
